<?xml version="1.0" encoding="UTF-8"?>
<svg width="66px" height="84px" viewBox="0 0 66 84" version="1.1" xmlns="http://www.w3.org/2000/svg" xmlns:xlink="http://www.w3.org/1999/xlink">
    <!-- Generator: Sketch 41.2 (35397) - http://www.bohemiancoding.com/sketch -->
    <title>education-color_microscope</title>
    <desc>Created with Sketch.</desc>
    <defs></defs>
    <g id="Page-1" stroke="none" stroke-width="1" fill="none" fill-rule="evenodd" opacity="0.5">
        <g id="Home" transform="translate(-422.000000, -704.000000)">
            <g id="Group-6" transform="translate(245.000000, 704.000000)">
                <g id="education-color_microscope" transform="translate(177.000000, 0.000000)">
                    <g id="Group">
                        <path d="M16.5,72.3333333 L0,72.3333333 L0,46.6666667 L7.33333333,46.6666667 C12.3951667,46.6666667 16.5,50.7715 16.5,55.8333333 L16.5,72.3333333 Z" id="Shape" fill="#949EB2"></path>
                        <path d="M44,74.1666667 C42.988,74.1666667 42.1666667,73.3471667 42.1666667,72.3333333 L42.1666667,59.5 C42.1666667,58.4861667 42.988,57.6666667 44,57.6666667 C45.012,57.6666667 45.8333333,58.4861667 45.8333333,59.5 L45.8333333,72.3333333 C45.8333333,73.3471667 45.012,74.1666667 44,74.1666667 Z" id="Shape" fill="#949EB2"></path>
                        <path d="M1.83333333,74.1666667 C0.821333333,74.1666667 0,73.3471667 0,72.3333333 L0,44.8333333 C0,33.1788333 6.424,22.584 16.764,17.1866667 C17.6641667,16.7173333 18.7696667,17.0675 19.239,17.964 C19.7065,18.8623333 19.3581667,19.9696667 18.4616667,20.439 C9.33533333,25.2001667 3.66666667,34.5483333 3.66666667,44.8333333 L3.66666667,72.3333333 C3.66666667,73.3471667 2.84533333,74.1666667 1.83333333,74.1666667 Z" id="Shape" fill="#949EB2"></path>
                        <path d="M32.9926667,12.6473333 L15.9756667,19.4691667 L26.8986667,46.1166667 C27.0838333,46.5676667 27.4376667,46.9251667 27.8868333,47.114 C28.1141667,47.2093333 28.3543333,47.2551667 28.5945,47.2551667 C28.831,47.2551667 29.0675,47.2093333 29.2893333,47.1176667 L42.8596667,41.5535 C43.7965,41.1703333 44.2438333,40.0996667 43.8606667,39.1628333 L32.9926667,12.6473333 Z" id="Shape" fill="#949EB2"></path>
                        <path d="M28.5651667,1.8435 C28.182,0.904833333 27.1131667,0.452 26.1726667,0.8425 L12.6023333,6.40483333 C12.1531667,6.59 11.7938333,6.94383333 11.6068333,7.393 C11.418,7.84033333 11.4161667,8.34633333 11.6013333,8.7955 L15.9775,19.4691667 L32.9945,12.6473333 L28.5651667,1.8435 Z" id="Shape" fill="#949EB2"></path>
                        <rect id="Rectangle-path" fill="#949EB2" transform="translate(24.483386, 16.058597) rotate(-21.852482) translate(-24.483386, -16.058597) " x="15.3162503" y="14.2262699" width="18.3342723" height="3.66465458"></rect>
                        <path d="M56.8333333,61.3333333 L31.1666667,61.3333333 C30.1546667,61.3333333 29.3333333,60.5138333 29.3333333,59.5 C29.3333333,58.4861667 30.1546667,57.6666667 31.1666667,57.6666667 L56.8333333,57.6666667 C57.8453333,57.6666667 58.6666667,58.4861667 58.6666667,59.5 C58.6666667,60.5138333 57.8453333,61.3333333 56.8333333,61.3333333 Z" id="Shape" fill="#091836"></path>
                        <path d="M64.1666667,83.3333333 L1.83333333,83.3333333 C0.821333333,83.3333333 0,82.512 0,81.5 L0,72.3333333 L64.1666667,72.3333333 C65.1786667,72.3333333 66,73.1546667 66,74.1666667 L66,81.5 C66,82.512 65.1786667,83.3333333 64.1666667,83.3333333 Z" id="Shape" fill="#091836"></path>
                        <ellipse id="Oval" fill="#091836" cx="8.25" cy="54.9166667" rx="2.75" ry="2.75"></ellipse>
                    </g>
                </g>
            </g>
        </g>
    </g>
</svg>