<?xml version="1.0" encoding="UTF-8"?>
<svg width="76px" height="67px" viewBox="0 0 76 67" version="1.1" xmlns="http://www.w3.org/2000/svg" xmlns:xlink="http://www.w3.org/1999/xlink">
    <!-- Generator: Sketch 41.2 (35397) - http://www.bohemiancoding.com/sketch -->
    <title>Group 3</title>
    <desc>Created with Sketch.</desc>
    <defs></defs>
    <g id="Page-1" stroke="none" stroke-width="1" fill="none" fill-rule="evenodd" opacity="0.5">
        <g id="Home" transform="translate(-417.000000, -1069.000000)">
            <g id="Group-6" transform="translate(245.000000, 704.000000)">
                <g id="Group-3" transform="translate(172.000000, 365.000000)">
                    <g id="Group-2"></g>
                    <path d="M54.5217391,23.1304348 L21.4782609,23.1304348 C9.63465234,23.1304348 0,32.7650855 0,44.6086957 C0,56.4523058 9.63465234,66.0869565 21.4782609,66.0869565 L54.5217391,66.0869565 C66.3653462,66.0869565 76,56.4523027 76,44.6086957 C76,32.7650886 66.3653462,23.1304348 54.5217391,23.1304348 Z" id="Shape" fill="#949EB2"></path>
                    <path d="M38,13.2173913 C37.0876691,13.2173913 36.3478261,12.4775483 36.3478261,11.5652174 L36.3478261,1.65217391 C36.3478261,0.739843313 37.0876691,0 38,0 C38.9123309,0 39.6521739,0.739843313 39.6521739,1.65217391 L39.6521739,11.5652174 C39.6521739,12.4775483 38.9123309,13.2173913 38,13.2173913 Z" id="Shape" fill="#091836"></path>
                    <rect id="Rectangle-path" fill="#B0B8C7" x="34.6956522" y="9.91304348" width="6.60869565" height="13.2173913"></rect>
                    <ellipse id="Oval" fill="#FFFFFF" cx="54.5217391" cy="44.6086957" rx="13.2173913" ry="13.2173913"></ellipse>
                    <circle id="Oval" fill="#FFFFFF" cx="19.826087" cy="44.6086957" r="13.2173913"></circle>
                    <ellipse id="Oval" fill="#458BC4" cx="54.5217391" cy="38" rx="3.30434783" ry="3.30434783"></ellipse>
                    <ellipse id="Oval" fill="#EFD358" cx="54.5217391" cy="51.2173913" rx="3.30434783" ry="3.30434783"></ellipse>
                    <ellipse id="Oval" fill="#E86C60" cx="61.1304348" cy="44.6086957" rx="3.30434783" ry="3.30434783"></ellipse>
                    <ellipse id="Oval" fill="#4DA34D" cx="47.9130435" cy="44.6086957" rx="3.30434783" ry="3.30434783"></ellipse>
                    <path d="M26.4347826,42.9565217 L21.4782609,42.9565217 L21.4782609,38 C21.4782609,37.0876691 20.7384179,36.3478261 19.826087,36.3478261 C18.913756,36.3478261 18.173913,37.0876691 18.173913,38 L18.173913,42.9565217 L13.2173913,42.9565217 C12.3050604,42.9565217 11.5652174,43.6963647 11.5652174,44.6086957 C11.5652174,45.5210266 12.3050604,46.2608696 13.2173913,46.2608696 L18.173913,46.2608696 L18.173913,51.2173913 C18.173913,52.1297222 18.913756,52.8695652 19.826087,52.8695652 C20.7384179,52.8695652 21.4782609,52.1297222 21.4782609,51.2173913 L21.4782609,46.2608696 L26.4347826,46.2608696 C27.3471135,46.2608696 28.0869565,45.5210266 28.0869565,44.6086957 C28.0869565,43.6963647 27.3471135,42.9565217 26.4347826,42.9565217 Z" id="Shape" fill="#091836"></path>
                </g>
            </g>
        </g>
    </g>
</svg>